#tb 0: 1/1000
0,          0,          0,        0,    13440, 0x7cb0a22f
0,        100,        100,        0,    13440, 0xdfcea6ba
0,        200,        200,        0,    13440, 0x59b2a5da
0,        300,        300,        0,    13440, 0x12f1b2d8
0,        400,        400,        0,    13440, 0x280fb9f6
0,        500,        500,        0,    13440, 0x7bace8b3
0,        600,        600,        0,    13440, 0x4ec91480
0,        700,        700,        0,    13440, 0xa8010450
0,        800,        800,        0,    13440, 0x61d8fc46
0,        900,        900,        0,    13440, 0x242bb24e
0,       1000,       1000,        0,    13440, 0x88397a36
0,       1100,       1100,        0,    13440, 0x10e15726
0,       1200,       1200,        0,    13440, 0x3018438c
0,       1300,       1300,        0,    13440, 0xbbb94c21
0,       1400,       1400,        0,    13440, 0xfc3e5e2b
0,       1500,       1500,        0,    13440, 0xeaa69354
0,       1600,       1600,        0,    13440, 0x96f1cc01
0,       1700,       1700,        0,    13440, 0x333fdaff
0,       1800,       1800,        0,    13440, 0xb5230ed2
0,       1900,       1900,        0,    13440, 0x59383446
0,       2000,       2000,        0,    13440, 0x954939e6
0,       2100,       2100,        0,    13440, 0x53813d2f
0,       2200,       2200,        0,    13440, 0x3ca53600
0,       2300,       2300,        0,    13440, 0x7b30227a
0,       2400,       2400,        0,    13440, 0x5145bbfe
0,       2500,       2500,        0,    13440, 0xa0979632
0,       2600,       2600,        0,    13440, 0x08026e21
0,       2700,       2700,        0,    13440, 0x3f456d1e
0,       2800,       2800,        0,    13440, 0x7d036b62
0,       2900,       2900,        0,    13440, 0x508085fb
0,       3000,       3000,        0,    13440, 0x251dc193
0,       3100,       3100,        0,    13440, 0xf3121c9b
0,       3200,       3200,        0,    13440, 0xf5da772e
0,       3300,       3300,        0,    13440, 0x8179ccf7
0,       3400,       3400,        0,    13440, 0xd57ceeb3
0,       3500,       3500,        0,    13440, 0xc8f2169c
0,       3600,       3600,        0,    13440, 0xbf8296c3
0,       3700,       3700,        0,    13440, 0xee1927d0
0,       3800,       3800,        0,    13440, 0xdd84e8d1
0,       3900,       3900,        0,    13440, 0x7be57be2
0,       4000,       4000,        0,    13440, 0xae353f91
0,       4100,       4100,        0,    13440, 0x3ae927f2
0,       4200,       4200,        0,    13440, 0x417227c6
0,       4300,       4300,        0,    13440, 0x32572bea
0,       4400,       4400,        0,    13440, 0x8b9e4839
0,       4500,       4500,        0,    13440, 0xad669441
0,       4600,       4600,        0,    13440, 0xc9de99a6
0,       4700,       4700,        0,    13440, 0xb3ffb88b
0,       4800,       4800,        0,    13440, 0xb321b8a0
0,       4900,       4900,        0,    13440, 0x2efdbf53
0,       5000,       5000,        0,    13440, 0x9b7aa566
0,       5100,       5100,        0,    13440, 0x563c8d60
0,       5200,       5200,        0,    13440, 0xe3848ee8
0,       5300,       5300,        0,    13440, 0xa84b8f1d
0,       5400,       5400,        0,    13440, 0x52da9f9f
0,       5500,       5500,        0,    13440, 0x2ed56d97
0,       5600,       5600,        0,    13440, 0x4e8534c2
0,       5700,       5700,        0,    13440, 0x318900a6
0,       5800,       5800,        0,    13440, 0xda96de39
0,       5900,       5900,        0,    13440, 0xaae7ac0b
0,       6000,       6000,        0,    13440, 0x7533ad99
0,       6100,       6100,        0,    13440, 0x4e70c2c9
0,       6200,       6200,        0,    13440, 0x9ce5e3fa
0,       6300,       6300,        0,    13440, 0xc788fbbc
0,       6400,       6400,        0,    13440, 0xd36604a9
0,       6500,       6500,        0,    13440, 0x246221a4
0,       6600,       6600,        0,    13440, 0x290c5c2b
0,       6700,       6700,        0,    13440, 0xde6c68ec
0,       6800,       6800,        0,    13440, 0x56248dbf
0,       6900,       6900,        0,    13440, 0x5b898cbd
0,       7000,       7000,        0,    13440, 0x090574b9
0,       7100,       7100,        0,    13440, 0x8df2814a
0,       7200,       7200,        0,    13440, 0xd4a6b285
0,       7300,       7300,        0,    13440, 0xa016e921
0,       7400,       7400,        0,    13440, 0x7f93fdc1
0,       7500,       7500,        0,    13440, 0xfd0dee6f
0,       7600,       7600,        0,    13440, 0xef04ce0e
0,       7700,       7700,        0,    13440, 0x7560bee3
0,       7800,       7800,        0,    13440, 0x5a8cdc85
0,       7900,       7900,        0,    13440, 0x4788f7bc
0,       8000,       8000,        0,    13440, 0xc001e34d
0,       8100,       8100,        0,    13440, 0xc687eb74
0,       8200,       8200,        0,    13440, 0xbf20feba
0,       8300,       8300,        0,    13440, 0xd32647a8
0,       8400,       8400,        0,    13440, 0xe69a955a
0,       8500,       8500,        0,    13440, 0x1b56951f
0,       8600,       8600,        0,    13440, 0xd1977378
0,       8700,       8700,        0,    13440, 0x1620357d
0,       8800,       8800,        0,    13440, 0x2596116f
0,       8900,       8900,        0,    13440, 0x7473feca
0,       9000,       9000,        0,    13440, 0x7f92bb47
0,       9100,       9100,        0,    13440, 0x6866a683
0,       9200,       9200,        0,    13440, 0xe9b08d7e
0,       9300,       9300,        0,    13440, 0xa3fd7546
0,       9400,       9400,        0,    13440, 0xa4416522
0,       9500,       9500,        0,    13440, 0xd8f5572e
0,       9600,       9600,        0,    13440, 0xf5746dbd
0,       9700,       9700,        0,    13440, 0x256a87c6
0,       9800,       9800,        0,    13440, 0x722aa2c8
0,       9900,       9900,        0,    13440, 0xb26de5f5
0,      10000,      10000,        0,    13440, 0x117f0841
0,      10100,      10100,        0,    13440, 0xda2d192c
0,      10200,      10200,        0,    13440, 0xb022442d
0,      10300,      10300,        0,    13440, 0xbc4044f2
0,      10400,      10400,        0,    13440, 0x68b330da
0,      10500,      10500,        0,    13440, 0xc07228cf
0,      10600,      10600,        0,    13440, 0xaa3f3d44
0,      10700,      10700,        0,    13440, 0x25867aad
0,      10800,      10800,        0,    13440, 0xa3ecb432
0,      10900,      10900,        0,    13440, 0x93ccdcbb
0,      11000,      11000,        0,    13440, 0x8302fa4f
0,      11100,      11100,        0,    13440, 0x2f960f33
0,      11200,      11200,        0,    13440, 0x15d41d14
0,      11300,      11300,        0,    13440, 0x636529d0
0,      11400,      11400,        0,    13440, 0x11035be5
0,      11500,      11500,        0,    13440, 0x9b6e9167
0,      11600,      11600,        0,    13440, 0x7b01adc7
0,      11700,      11700,        0,    13440, 0xa237e05d
0,      11800,      11800,        0,    13440, 0xd2f4f134
0,      11900,      11900,        0,    13440, 0x2052d368
0,      12000,      12000,        0,    13440, 0x08f7ae0d
0,      12100,      12100,        0,    13440, 0xa89185bc
0,      12200,      12200,        0,    13440, 0xfa628236
0,      12300,      12300,        0,    13440, 0xdf79848b
0,      12400,      12400,        0,    13440, 0xd19a906f
0,      12500,      12500,        0,    13440, 0x219f9324
0,      12600,      12600,        0,    13440, 0x46509b6d
0,      12700,      12700,        0,    13440, 0xc5d9a568
0,      12800,      12800,        0,    13440, 0xb21aaaa8
0,      12900,      12900,        0,    13440, 0x925a97ed
0,      13000,      13000,        0,    13440, 0xc5e3557f
0,      13100,      13100,        0,    13440, 0x7c57155a
0,      13200,      13200,        0,    13440, 0x6b26d005
0,      13300,      13300,        0,    13440, 0xfdc7b369
0,      13400,      13400,        0,    13440, 0x99919fc2
0,      13500,      13500,        0,    13440, 0xcfe889e4
0,      13600,      13600,        0,    13440, 0xd1196856
0,      13700,      13700,        0,    13440, 0xec8348c6
0,      13800,      13800,        0,    13440, 0x5ede0d9a
0,      13900,      13900,        0,    13440, 0x198ef66e
0,      14000,      14000,        0,    13440, 0x62fcefdf
0,      14100,      14100,        0,    13440, 0x7791f415
0,      14200,      14200,        0,    13440, 0xfbdb0029
0,      14300,      14300,        0,    13440, 0xdab12b01
0,      14400,      14400,        0,    13440, 0x646b2d5f
0,      14500,      14500,        0,    13440, 0x5410f52e
0,      14600,      14600,        0,    13440, 0x7186eef8
0,      14700,      14700,        0,    13440, 0xca251ef6
0,      14800,      14800,        0,    13440, 0x757c3b43
0,      14900,      14900,        0,    13440, 0x59ff4982
0,      15000,      15000,        0,    13440, 0xbe8ff084
0,      15100,      15100,        0,    13440, 0xc85a9e38
0,      15200,      15200,        0,    13440, 0x541b9a19
0,      15300,      15300,        0,    13440, 0x274893c9
0,      15400,      15400,        0,    13440, 0x7634b5d2
0,      15500,      15500,        0,    13440, 0x1bd8e10c
0,      15600,      15600,        0,    13440, 0xa661dfb1
0,      15700,      15700,        0,    13440, 0x9d01bf92
0,      15800,      15800,        0,    13440, 0xcb1eb220
0,      15900,      15900,        0,    13440, 0x0ce27d25
0,      16000,      16000,        0,    13440, 0x523b594f
0,      16100,      16100,        0,    13440, 0xf0a04c4f
0,      16200,      16200,        0,    13440, 0x0f0ffc3d
0,      16300,      16300,        0,    13440, 0xb0d8b778
0,      16400,      16400,        0,    13440, 0x5137a642
0,      16500,      16500,        0,    13440, 0xd213a552
0,      16600,      16600,        0,    13440, 0xc2fbc9b1
0,      16700,      16700,        0,    13440, 0xfc2ee379
0,      16800,      16800,        0,    13440, 0xfb80f737
0,      16900,      16900,        0,    13440, 0xd6cb2447
0,      17000,      17000,        0,    13440, 0x124b606d
0,      17100,      17100,        0,    13440, 0xf788a066
0,      17200,      17200,        0,    13440, 0xa16eed6e
0,      17300,      17300,        0,    13440, 0x73ff0f82
